<svg width="1380" height="1011" viewBox="0 0 1380 1011" fill="none" xmlns="http://www.w3.org/2000/svg">
<path d="M696.867 0.933086C691.533 2.26642 685 33.0664 685 56.1331C685 64.6664 684.467 67.0664 681.8 71.0664C679.933 73.7331 677.4 78.5331 675.933 81.7331C674.467 84.9331 672.6 87.9998 671.933 88.5331C671.133 89.0664 670.733 90.2664 671.267 91.3331C671.667 92.5331 670.333 95.4664 668.333 98.1331C665.667 101.6 664.333 102.4 663 101.333C661.8 100.4 660.867 100.533 659.667 102C658.733 103.066 656.067 104 653.8 104C648.867 104 643.4 99.0664 641.4 92.6664C639.667 87.1998 634.467 85.4664 629.667 88.5331C627.133 90.2664 626.467 91.4664 627.133 93.5998C627.667 95.4664 627.533 95.9998 626.333 95.3331C624.6 94.2664 621.133 98.2664 621 101.6C621 102.933 619.267 106.8 617 110.266C613.4 116 613 117.466 613 128.133V139.866L602.067 151.333C588.067 166.266 579.4 170.666 568.467 168.666C560.333 167.066 549.533 153.6 546.2 140.8C545.667 138.533 543.8 133.066 542.2 128.666C540.467 124 538.867 115.466 538.2 108C535.533 73.9998 535.267 73.0664 527.4 62.6664C525.533 59.9998 523 54.2664 521.8 49.9998C519.133 39.8664 512.2 21.3331 510.467 19.5998C509.667 18.7998 508.733 18.5331 508.333 18.9331C507.4 19.8664 511.267 53.9998 513 59.3331C514.2 63.4664 514.067 71.3331 512.333 83.3331C511.533 88.9331 512.2 92.9331 516.333 107.333C519 116.933 522.733 128.933 524.6 134.266C527.8 143.2 527.8 144.4 526.467 152.933C525.533 157.866 523.933 163.466 522.867 165.066C521 167.866 520.067 168.133 515.267 167.466C512.2 166.933 507.267 166.4 504.333 166.266C499.133 166 499 166.133 499.4 170C499.667 172.266 501 174.933 502.733 176C509.4 180.666 513 184.4 513 186.666C513 188 510.867 190.933 508.333 193.2C502.6 198.133 496.2 198.533 485 194.666C481 193.2 475.933 192.133 473.8 192C471.8 192 467.933 190.266 465.133 188.133C462.467 186.133 459 184 457.4 183.466C455.667 182.933 452.467 179.866 450.2 176.666C447.933 173.6 442.867 168.666 438.733 165.866C428.733 158.8 417.933 150 409.133 141.866C405 138.133 400.333 134.4 398.733 133.466C394.6 131.333 393.533 124.933 396.467 118.933C400.333 110.8 400.333 104.266 396.6 93.4664C392.2 80.9331 388.6 75.7331 380.2 69.8664C371.8 63.9998 365.667 62.9331 356.6 65.8664C349.933 67.9998 349 68.7998 342.733 78.3998C334.6 91.0664 333 95.4664 333 105.866C333 120.533 337.8 130.933 347.267 137.333C351.533 140.266 353.4 140.666 362.2 140.4C367.8 140.133 374.067 139.333 376.067 138.533C379.533 137.066 380.6 137.466 390.733 144.4C396.733 148.533 405.933 155.466 411 159.866C416.2 164.4 421 168 421.933 168C422.867 168 425.533 170 427.933 172.4C430.333 174.933 435.8 179.466 440.067 182.533C444.333 185.6 448.067 188.933 448.467 189.866C448.867 190.8 452.2 193.2 456.067 195.2C467.133 200.933 469.267 203.2 470.067 210.4C470.6 216.266 470.333 216.933 467.133 218.4C465.267 219.2 462.867 221.466 462.067 223.466C460.733 226.266 459.933 226.666 457.133 226C450.733 224.4 441.8 225.466 436.333 228.4C430.867 231.466 430.333 233.066 432.333 239.733C433.133 242.133 432.867 242.533 431.133 241.866C429.267 241.066 429.133 241.466 431 244.8C433.667 250 433.533 255.066 430.6 258.666C428.2 261.6 428.2 261.6 428.2 254.533C428.067 244.533 427.133 239.6 424.733 236.266C422.867 233.466 422.733 233.866 422.333 242.933C422.2 248.266 422.067 256.533 422.067 261.333C422.2 266.666 421.533 270.266 420.6 270.933C417.4 273.066 410.6 271.866 405.533 268.533C402.733 266.533 397.8 264.666 394.733 264.266C390.067 263.733 388.6 264.266 385.667 267.2C383.133 269.866 382.467 271.466 383.133 273.733C385 280 392.467 285.333 399.4 285.333C408.867 285.333 419.267 293.2 417.8 299.2C416.733 303.466 418.067 306.666 420.467 305.733C423.8 304.533 422.467 307.866 417.533 312.666C414.867 315.333 411.8 317.333 410.6 317.2C408.6 316.933 406.2 317.2 394.067 319.466C391.267 320 390.333 319.733 390.333 318.133C390.333 315.466 388.6 315.466 382.733 318.133C378.333 320.266 377.933 320.266 371.933 317.466C368.467 316 361.533 314.133 356.6 313.466C349.533 312.4 346.6 311.333 343.133 308.266C336.867 302.8 316.6 292 312.467 292C310.067 292 309.267 292.533 309.8 294C310.733 296.4 309.8 296.533 306.2 294.666C304.067 293.466 303.267 294 301 297.6C295.667 306.4 298.2 312.8 311 322.666C319.267 329.066 332.467 333.333 353.667 336.666C360.333 337.733 367.133 338.933 369 339.333C370.733 339.866 376.333 340.4 381.4 340.8C397.667 341.733 407.933 344.133 413 348.133C417.4 351.466 420.733 353.066 437.267 359.6C441.267 361.066 443.667 362.8 443.667 364.133C443.667 365.333 444.6 367.2 445.8 368.133C449.267 371.066 459.133 384.266 462.2 390.266C466.333 398.666 465.933 403.466 460.467 408.533C457 411.6 456.067 413.2 457 414.666C458.733 417.466 458.733 417.866 455.4 422.133C453.667 424.133 452.333 426.8 452.333 428C452.333 429.866 451.4 430.133 443.667 430.533C440.6 430.666 440.333 431.2 440.333 437.2C440.333 442.8 439.667 444.4 435.267 449.2C429.933 455.066 429.4 457.066 432.067 459.866C433.4 461.333 433.267 461.6 431.4 460.933C429.133 460.133 428.333 461.733 428.867 466.266C429 467.2 428.2 468 427.267 468C426.067 468 425 469.733 424.733 472C424.333 474.666 424.733 476 425.933 476C429.133 476 427.667 478.666 424.333 478.8C422.467 478.933 420.333 479.066 419.4 479.2C418.467 479.333 415.8 475.866 413.4 471.466C409.533 464.666 409.133 463.066 410.2 459.2C411.267 455.466 411 454.4 409.267 453.466C408.067 452.933 406.2 452.666 405.4 452.933C404.467 453.333 403.667 452.933 403.667 452.133C403.667 451.333 403.133 450.666 402.333 450.666C401.667 450.666 401 451.866 401 453.2C401 455.733 400.733 455.733 395.4 452.666C392.2 450.8 388.067 449.333 386.067 449.333C383.933 449.333 382.333 448.666 382.333 447.866C382.333 447.066 383.267 446.8 384.467 447.2C386.333 447.866 386.467 447.733 385 446C384.067 444.933 382.333 444 381.133 444C379.933 444 378.2 443.333 377.4 442.533C376.333 441.466 375.267 442 373.667 444.533C372.467 446.4 368.733 449.733 365.267 452C360.333 455.333 357.933 456 352.067 455.866C346.2 455.733 343.667 456.4 338.067 459.866C331.267 464.133 327.667 464.4 327.667 460.8C327.667 457.866 316.733 439.333 313.8 437.2C313.133 436.666 313.133 435.6 313.533 434.8C314.067 434 313.533 433.333 312.067 433.333C310.067 433.333 309.933 433.066 311.667 432C313.4 430.933 313.267 430.666 311.133 430.666C309.267 430.666 309 430.266 310.2 428.933C311.267 427.466 309.933 426.266 303.667 423.333C297.933 420.533 295.667 418.8 295.667 416.933C295.667 415.466 294.733 413.6 293.667 412.8C292.6 412 291.533 409.066 291.4 406.4C291.133 403.6 290.733 401.333 290.2 401.333C289.8 401.333 289.533 399.333 289.4 396.933C289.267 391.2 284.067 379.066 280.733 376.8C279.4 375.866 278.333 374.533 278.467 373.866C279.133 371.333 273.8 356 271.533 353.866C266.733 349.466 264.467 355.733 268.6 362.4C269.8 364.4 272.067 368.133 273.8 370.666C275.4 373.2 277.8 379.2 279 384C280.2 388.8 282.067 393.6 283 394.666C283.933 395.733 286.067 400.533 287.667 405.333C289.4 410.133 291.267 414.533 291.933 415.2C295.133 419.066 293.267 418.666 277.667 413.2C269.267 410.266 261.933 408.933 263 410.533C263.8 411.866 290.467 422.666 292.867 422.666C293.8 422.666 294.867 424 295.533 425.733C297.267 430.266 295.667 452.133 293.4 455.733C290.867 459.866 286.2 459.066 283.933 454.266C283 452.266 281.133 450.533 279.933 450.4C278.733 450.4 276.867 450.133 275.933 450.133C274.867 450 273.267 448.8 272.2 447.466C270.467 444.933 270.333 445.066 270.333 448.8C270.333 450.933 271.4 454.133 272.6 456C273.8 457.733 275.533 464 276.467 469.866C277.4 475.866 278.467 481.733 279 482.933C279.533 484.4 278.867 485.6 276.733 486.8C275 487.6 271.667 490.133 269.267 492.133C263.8 496.933 262.467 496.933 258.867 492.4C256.333 489.2 255.667 488.933 253.8 490.533C252.6 491.466 251.667 493.333 251.667 494.666C251.667 496.533 250.6 496.8 244.067 496.4C239.8 496 233.133 495.2 229.133 494.533C224.2 493.733 221.533 493.733 221 494.666C219.933 496.533 214.2 494.4 211.667 491.333C210.2 489.6 202.2 485.2 199.533 484.8C198.067 484.533 179.667 465.333 179.667 464C179.667 463.333 179 462.666 178.2 462.666C175.8 462.666 173 458.933 173 455.6C173 452.133 169.667 448.4 166.333 448.266C165.267 448.133 162.6 447.733 160.6 447.2L156.733 446.266L158.733 450.133C161.267 454.933 166.067 459.466 169.933 460.533C173.667 461.733 187 476.133 190.333 482.666C191.8 485.6 193 489.6 193 491.733C193 495.466 192.733 495.6 186.2 495.733C182.067 495.733 178.067 495.066 176.2 493.866C174.467 492.666 172.6 492.133 171.933 492.533C171.267 492.933 168.067 492 165 490.533C155.667 486 145 488.533 145 495.2C145 500.266 150.467 503.866 161.133 506C166.6 507.066 173.133 508.533 175.667 509.333C178.2 510.133 184.067 510.8 188.6 510.8C193.267 510.8 197 511.333 197 512C197 512.666 194.733 514.133 192.067 515.333C189.267 516.533 184.733 518.533 182.067 520C179.267 521.333 177 521.866 177 521.066C177 520.266 175.533 520 173.8 520.266C169.4 521.2 166.2 519.2 169 517.333C170.067 516.666 170.333 516 169.667 516C168.867 516 167.667 514.666 167 512.933C166.2 511.333 164.333 509.866 162.733 509.6C161 509.333 159.667 508.4 159.667 507.6C159.667 506.533 159.133 506.666 158.467 507.866C157.4 509.466 156.733 509.466 153.8 507.6C151.933 506.4 149 505.333 147.267 505.333C145.533 505.333 141.667 503.6 138.733 501.466C135.8 499.333 132.2 497.2 130.6 496.8C129 496.266 127.667 495.2 127.667 494.4C127.667 493.733 126.733 493.466 125.667 493.866C124.333 494.266 123.667 494 123.933 492.933C124.467 490.533 113.4 476.266 109.267 474.266C107.267 473.2 103.933 472 101.667 471.466C99.5333 470.933 95.8 469.066 93.4 467.2C91.1333 465.466 87.9333 464 86.3333 464C84.8666 464 82.0666 463.066 80.3333 461.866C78.4666 460.666 77 460.266 77 461.066C77 461.866 75.5333 461.066 73.6666 459.466C71.5333 457.466 69.2666 456.533 67.6666 456.933C65.9333 457.333 65 456.933 65 455.733C65 454.8 60.8666 451.333 55.8 448.266C50.7333 445.2 45.5333 441.066 44.3333 439.2C42.7333 436.8 41.5333 436.133 39.4 436.666C37.4 437.466 35.4 436.133 30.4666 430.8C27 427.066 23 424 21.5333 424C20.0666 424 16.7333 422.8 13.9333 421.333C9.5333 418.933 8.86663 418.933 8.19996 420.666C7.66663 421.866 8.7333 423.733 10.8666 425.466C15.5333 429.2 15.2666 430.4 9.5333 430.4C3.5333 430.4 2.19996 431.6 7.1333 432.8C9.26663 433.333 12.4666 435.066 14.3333 436.666C16.2 438.266 20.0666 440.4 23 441.333C25.9333 442.266 36.0666 446.8 45.4 451.6C54.8666 456.266 65.9333 461.2 69.9333 462.666C74.4666 464.266 79.8 467.6 83.8 471.333C87.2666 474.666 91.9333 478 93.9333 478.933C95.9333 479.733 103.133 484 109.8 488.4C120.2 495.333 122.867 497.866 127.533 505.333C130.467 510.266 137 518 141.8 522.533C150.467 530.8 157.8 542.933 158.6 550.666C158.867 552.933 161.133 555.466 166.067 558.8C169.933 561.466 177.667 567.733 183.267 572.8C188.867 577.866 194.867 583.066 196.6 584.4C203.667 590 197.4 598.133 189 594.4C187 593.6 185.533 592.133 185.8 591.333C186.2 590.533 184.6 588.933 182.333 587.6C177.533 584.666 177.133 586.133 181.667 590.533C183.533 592.266 185 594.666 185 595.866C185 597.2 185.933 599.333 187 600.8C189.533 604.266 189.533 604.533 185.533 609.333C181.933 613.6 175 617.6 165.667 620.666C155.8 623.866 153.267 624.133 152.467 622C152.067 620.933 150.6 620 149.133 620C147.667 620 146.333 619.6 146.067 618.933C145.533 617.6 134.333 612.4 130.333 611.6C128.467 611.2 121 608.8 113.667 606.133C106.333 603.466 97 600.4 93 599.333C85 597.333 73.6666 593.6 70.0666 591.866C68.7333 591.2 66.7333 590.666 65.6666 590.666C64.4666 590.666 61.2666 589.466 58.3333 588C55.4 586.533 51.2666 585.333 48.8666 585.333C45.9333 585.333 43.8 584.133 41.2666 581.333C38.0666 577.6 37 577.333 29.1333 577.333C21.4 577.333 20.0666 576.933 16.3333 573.466C10.7333 568.133 -1.2667 566.666 0.599964 571.466C1.66663 574.4 8.19996 577.333 14.7333 577.866C17.8 578.133 23.6666 580.133 27.6666 582.266C32.3333 584.933 37.6666 586.666 42.4666 587.066C46.6 587.466 51.1333 588.4 52.4666 589.066C56.0666 590.8 63.2666 593.333 71 595.333C81.1333 598.133 90.6 601.2 95 603.2C100.6 605.733 115.933 610.666 118.2 610.666C119.267 610.666 122.6 611.866 125.533 613.2C128.6 614.533 132.6 616.133 134.6 616.533C136.6 616.933 139.933 618.8 141.933 620.533L145.667 623.733L143 627.466C140.733 630.4 138.067 631.6 129 633.6C122.733 634.933 113.133 636.266 107.667 636.4C90.0666 637.066 82.3333 641.6 87.6666 648.266C89.8 651.066 91.2666 651.6 99 651.733C109.133 651.866 111.4 653.2 115.667 662.133C117.267 665.333 119.667 668.266 121 668.666C122.467 669.066 125.4 671.866 127.667 674.666C133.267 681.733 135.8 682.266 143 678.133C146.2 676.133 150.867 674.666 153.533 674.666C156.067 674.666 158.6 674 159 673.333C160.733 670.533 171.8 673.2 178.333 678C179.4 678.933 183.933 680.266 188.2 681.333C198.733 683.466 204.2 688.666 202.333 694.266C200.6 698.933 194.867 705.333 192.333 705.333C191.267 705.333 187.267 706.933 183.4 708.8C177.933 711.466 175.267 713.866 171.8 719.466C166.733 727.6 163.933 729.6 157 730.266C154.467 730.533 149.933 730.933 147 731.2C139.667 731.866 130.6 737.333 123.4 745.333C119.133 750 116.333 752 113.933 752C112.067 752 107.4 753.466 103.4 755.333C99.5333 757.2 97.1333 758.666 98.0666 758.666C99 758.666 102.067 757.466 105 756C107.933 754.533 111.933 753.333 113.933 753.333C116.067 753.333 119.267 752.266 121 751.066C122.867 749.866 123.933 749.333 123.4 750C121.933 751.466 126.067 758.666 128.333 758.666C129.4 758.666 130.333 759.333 130.333 760.133C130.333 760.933 131.267 761.333 132.333 760.933C134.733 760 136.333 762.133 134.067 763.066C133 763.6 133.533 764.133 135.267 764.666C137 765.2 137.933 766.266 137.4 767.066C136.867 767.866 137.4 768.133 138.867 767.6C140.2 767.066 140.867 767.2 140.333 768C139.933 768.8 137.533 769.333 135.267 769.466C132.867 769.466 128.6 770 125.667 770.533C122.067 771.2 125 771.466 134.2 771.066C146.2 770.666 149 770.133 153.933 767.2C159.133 764.133 161.4 763.733 174.067 763.6L188.333 763.333L190.6 768.266C195.133 777.733 210.067 782.8 224.467 779.466C229.8 778.266 242.2 782.8 248.467 788.266C254.467 793.6 254.733 799.866 249 805.466L245 809.466L222.067 809.333C209.4 809.333 195.133 809.466 190.333 809.866C185.667 810.266 181.133 810 180.333 809.333C177.667 807.2 168.067 805.733 162.867 806.666C158.2 807.466 158.6 807.6 166.067 807.733C171.4 807.733 175.667 808.533 177.667 809.866C179.4 811.066 181.667 812 182.467 812C183.4 812 185.4 813.066 186.867 814.266C189.533 816.666 189.533 816.533 187.667 814C185.8 811.466 185.8 811.466 188.067 813.2C189.933 814.666 190.067 815.333 188.733 817.066C187.4 818.8 187.4 818.933 188.733 818.133C189.667 817.6 190.333 817.866 190.333 818.8C190.333 819.866 191 819.733 192.6 818.533C194.467 817.066 194.6 817.066 193.8 818.4C193 819.6 194.333 821.733 197.533 824.8C200.467 827.6 202.067 830 201.4 831.066C200.867 832 201.533 831.866 203.133 830.666C204.467 829.6 205.267 829.2 204.733 829.866C204.2 830.533 205.667 832.8 207.8 834.8C210.067 836.933 211.267 838.666 210.467 838.666C207.667 838.666 199.933 834.933 198.867 833.066C198.2 832 195.267 829.466 192.333 827.6C187.8 824.533 185.8 824 178.333 824.266L169.667 824.4L179 825.2C184.2 825.6 189.267 826.666 190.333 827.6C191.4 828.533 194.733 831.333 197.667 833.733C203.133 838.533 208.6 840.533 220.733 842C225.533 842.666 228.333 842.4 229.8 841.333C230.867 840.4 236.733 839.2 242.867 838.666C249 838 255.933 836.533 258.333 835.333C261.4 833.733 264.2 833.333 267.533 834C270.2 834.4 275 835.066 278.333 835.2C298.067 836.533 305.4 837.866 308.733 840.533C310.733 842.133 314.067 844.266 316.2 845.333C318.467 846.4 324.067 851.066 328.867 855.733C334.2 860.933 339.267 864.533 342.333 865.333C345 866 348.6 868.133 350.333 870C352.067 871.866 354.2 873.333 355 873.333C355.933 873.333 357.4 875.733 358.333 878.666C359.267 881.6 360.6 884 361.267 884C361.8 884 362.333 884.933 362.333 885.866C362.333 886.933 364.467 891.466 367 895.866C369.533 900.133 371.667 905.333 371.667 907.066C371.667 910.666 365 917.333 361.533 917.333C360.467 917.333 357.667 918.266 355.533 919.466C352.2 921.2 351.533 922.133 351.933 925.733C352.333 929.6 352.867 930 357.133 930.4C360.6 930.666 363.4 929.866 367 927.466C372.733 923.466 374.2 923.333 377.8 925.866C379.933 927.466 380.333 929.333 380.2 939.6C380.2 946 379.4 954 378.467 957.333C377.533 960.666 376.6 966.933 376.333 971.333C376.067 975.733 375.267 981.466 374.467 984C372.467 990.266 372.6 991.2 375.4 994.666C377.533 997.333 378.2 997.466 381 996C382.6 995.066 388.067 994.4 392.867 994.4C407.267 994.666 410.867 992.8 428.333 976C431.267 973.066 435.933 969.866 438.733 968.666C443.667 966.666 443.933 966.666 447.667 969.866C450.2 971.866 452.6 972.8 454.333 972.4C455.8 972 459.133 972.666 461.667 973.866C465 975.466 469.4 976.133 476.067 975.866C484.733 975.733 489.8 976.533 507.267 981.466C514.733 983.466 532.867 981.066 539.133 977.2C546.2 972.8 550.467 972.133 554.6 974.4C557.533 976.133 559.133 976.266 563.133 974.933C569 973.2 571 974.266 572.067 980C573.267 985.866 577.667 988.133 586.067 987.066C592.067 986.4 593.8 985.466 599 980.133C604.067 974.933 605 973.2 605 968.666C605 965.733 603.8 961.466 602.333 959.066C599.933 955.066 598.2 954.133 591 953.066C589.133 952.8 588.333 951.6 588.2 949.333C588.2 944.8 586.733 942.666 583.667 942.666C581.933 942.666 580.733 943.866 580.2 946.266C578.733 953.333 578.6 953.6 575.933 952.133C574.467 951.333 572.333 949.2 571.133 947.333C569.267 944.533 567.933 944 562.467 944C555.533 944 553.933 942.8 552.467 937.066C552.067 935.066 550.733 932.666 549.667 931.466C547.8 929.733 547.8 929.333 549.8 927.733C551 926.8 553.8 924.133 556.067 921.866C561.667 916.266 565.267 914.533 572.6 914C577.667 913.6 579.533 914.133 582.733 916.8C586.467 919.866 586.867 920 589.133 917.866C591.8 915.466 591.533 914.133 586.867 905.066C584.333 900.266 583.8 897.6 584.467 894C585 890.666 584.6 888.266 583 885.866C580.333 881.6 581 876.266 585.133 870.4C587.933 866.533 588.333 866.4 594.733 867.2C599.667 867.866 602.333 869.2 605.133 872.133C609.267 876.533 612.333 876.933 619 873.733C623.533 871.6 623.8 871.6 627.667 874.4C629.8 876 632.733 877.333 634.2 877.333C635.8 877.333 638.333 879.466 640.6 882.933C643.533 887.333 645.933 889.066 651.533 891.066C660.467 894.266 662.333 892.8 657.8 886.133C656.067 883.466 654.333 880.8 654.067 880.266C653.4 878.8 645.267 873.333 643.8 873.333C643.133 873.333 642.333 874 642.067 874.933C641.667 875.866 640.467 876.133 639.133 875.6C637.533 874.933 637.133 873.866 637.667 872.133C638.2 870.533 637.133 868.133 634.733 865.333C631.933 862 631.133 859.6 631.133 854.666C631.133 846.8 634.6 840.8 638.467 842C639.933 842.533 641 842.266 641 841.333C641 840.533 641.8 840.266 642.733 840.8C643.533 841.333 643.933 841.333 643.4 840.666C642.867 840.133 638.6 839.6 633.8 839.733C625.667 839.733 625.133 839.6 623.667 836C622.733 833.866 622.467 830.4 622.867 828.4C623.933 824 622.067 821.866 614.333 818C611.8 816.666 607.533 813.866 605 811.866C599.267 807.066 590.467 806.4 589.4 810.666C588.467 814 588.467 814 584.333 809.866C581.133 806.666 580.333 806.533 572.6 807.2C557.533 808.8 553.133 810.533 551 815.733C549.933 818.266 549 822.266 549 824.8C549 828 547.533 830.8 543.533 835.6C537.4 842.533 534.333 844.266 534.333 840.4C534.333 837.066 538.733 826.133 543.667 817.066C547.8 809.466 547.933 806.666 544.333 806.666C541 806.666 538.067 802.533 539 798.933C539.667 796.4 538.867 794.666 536.2 791.866C534.2 789.733 531.8 788 531 788C528.6 788 518.2 802.533 515.8 809.333C513 817.066 508.867 824 507.4 823.2C505.933 822.266 506.067 816.266 507.667 815.333C508.467 814.933 509 812.933 509 810.933C509 808.933 510.333 805.866 511.8 804C515.933 798.8 521.533 790.266 522.067 788C522.333 786.933 522.467 783.6 522.467 780.8C522.467 777.866 523 774.533 523.8 773.066C525.667 769.466 521.933 768.4 517.4 771.333C514.067 773.6 513.8 773.6 512.067 771.2C509.8 768.133 509.8 766 512.2 763.6C513.8 762.133 513.267 761.066 508.2 757.066C503.267 753.066 501.4 752.266 495 752.133C486.333 752 482.733 753.866 477.8 761.333C474.467 766.4 470.2 768.266 468.333 765.466C467.4 763.866 477 754.266 483.533 750C486.2 748.4 489.4 745.866 490.6 744.533C493.267 741.6 495.8 735.2 494.733 734.266C493.533 733.066 484.467 736.8 476.6 741.866C472.467 744.533 468.467 746.666 467.667 746.666C465.4 746.666 466.2 744 468.733 743.066C471.267 742 479.267 736.933 482.2 734.4C483.8 733.2 483.533 732.666 480.867 731.6C477.667 730.533 477.8 730.4 484.067 724.8C489.133 720.4 490.467 718.4 490.067 715.866C489.667 713.066 489 712.666 485 712.933C480.2 713.2 477.8 712.533 464.067 706.933C454.467 703.066 452.6 700 456.867 695.466C458.467 693.866 459.667 691.466 459.667 690.266C459.667 684.666 440.067 680.8 431.133 684.533C428.333 685.733 422.867 687.066 419 687.466C412.467 688.266 411.8 688.133 409.667 684.8C407.4 681.466 407.4 681.2 409.8 678.533C413.133 674.8 417.933 672.4 424.333 671.2C431.8 669.866 443.667 663.733 447.933 658.933C451.133 655.2 461 650.533 469.933 648.533C473.533 647.733 473.533 647.733 470.867 649.733C469.4 650.933 466.333 652.266 464.2 652.8L460.333 653.866L463.667 654.8C470.333 656.666 478.067 656 485.4 652.8C496.2 648 500.867 640 491.267 642.8C485.533 644.4 485.533 644.4 489 641.333C490.733 639.866 493.4 638.666 495.133 638.666C496.867 638.666 499.933 637.2 501.933 635.333C505.4 632.4 505.4 632.133 502.867 632C501.4 632 499.667 631.6 499.267 631.066C497.933 629.733 502.333 625.466 504.2 626.133C505.133 626.533 509.267 625.2 513.4 623.333C517.667 621.466 521.8 620 522.867 620C525.667 620 529 615.333 529 611.2C529.133 609.066 530.333 604 531.8 600C533.267 596 535.133 590.266 535.933 587.466C536.733 584.666 538.467 580.133 539.8 577.466C541 574.8 541.8 572.133 541.4 571.466C540.333 569.866 530.733 571.466 527 573.866C522.6 576.8 522.867 580.533 527.667 584C531.133 586.4 531.4 587.2 530.2 589.6C528.867 592 527.933 592.133 522.6 591.333C507.667 588.8 498.2 590 492.067 595.066C490.067 596.8 485.4 599.333 481.667 600.666C478.067 602 473.8 604.133 472.333 605.333C468.733 608.266 459 611.2 452.067 611.333C446.2 611.466 444.333 609.866 448.733 608.533C449.933 608.133 452.2 607.2 453.667 606.533C455.667 605.6 455.267 605.466 451.8 606L447.133 606.666L450.333 603.333C453.533 599.866 458.2 598 467.133 596.666C471.8 596 484.867 589.466 481.933 589.333C481.4 589.333 481.533 588.133 482.333 586.8C483.267 584.8 483.133 583.2 481.267 580.133C479 576 473.667 574.133 475.133 578C475.667 579.2 475.133 580 473.933 580C472.733 580 471 580.4 469.8 580.8C468.333 581.333 467.667 580.933 467.667 579.466C467.667 578.266 466.6 577.333 465.4 577.466C463.933 577.466 463.667 577.866 464.733 578.266C465.533 578.533 466.067 579.466 465.533 580.133C464.467 581.866 455.667 581.6 455.667 579.866C455.667 579.066 454.733 578.8 453.533 579.2C452.467 579.6 451.8 579.466 452.2 578.8C452.6 578.266 450.2 577.733 447 577.6C443.267 577.6 441 578.133 441 579.066C441 580 440.467 579.733 439.667 578.666C438.733 577.066 438.067 577.066 436.733 578.4C434.867 580.266 429.533 580.533 428.333 578.666C427.933 577.866 426.2 577.333 424.6 577.466C421.933 577.6 421.933 577.733 425 578.666C428.067 579.466 427.933 579.733 423 580.533C420.067 581.066 416.6 581.733 415.4 582C414.067 582.266 413 581.866 413 581.066C413 580.266 411.533 580.133 409.667 580.533C407.8 581.066 406.333 580.8 406.333 580.133C406.333 577.466 415.933 575.733 435.667 574.666C447 574 459 573.066 462.333 572.533C468.867 571.466 479 564.8 480.067 560.933C480.467 559.733 481.933 558.666 483.4 558.666C484.867 558.666 489.4 555.866 493.533 552.533C501.667 545.733 502.733 542.4 498.333 537.6C496.867 536 495.8 534.266 495.933 533.733C496.2 532.133 493.4 526.4 490.6 522.8C486.867 518.133 485.533 521.733 489.133 526.666C490.867 528.8 491.8 530.933 491.267 531.466C490.2 532.533 476.2 527.2 471.8 524.133C469.933 522.666 465.8 520.933 462.6 520.133C459.533 519.2 457.267 518 457.667 517.333C458.067 516.533 457.533 516.4 456.467 516.8C455 517.333 454.333 516.8 454.333 514.8C454.333 511.333 456.333 511.2 462.467 514.533C469.667 518.4 476.067 519.333 478.333 516.8C479.267 515.6 479.667 514.133 479.133 513.733C478.2 512.8 478.067 512.666 469 511.6C465.667 511.2 461.4 510.266 459.4 509.466C457.267 508.666 455.667 508.533 455.667 509.066C455.667 509.6 455.133 509.2 454.467 508.133C453.8 507.066 451.267 506 448.867 505.733C446.467 505.466 443.8 504.666 443.133 504C442.333 503.2 439.8 502.666 437.4 502.666C435 502.666 433 502.133 433 501.6C433 500.933 431.267 500.666 429.133 501.066C425.133 501.6 411.667 496.533 411.667 494.4C411.667 493.733 410.867 493.333 410.067 493.466C407 494 397.8 491.733 394.733 489.866C391.4 487.733 390.733 484.666 393.4 483.6C394.2 483.333 399.267 484.933 404.333 487.333C409.533 489.866 416.333 492.133 419.667 492.666C423 493.2 426.333 494.133 427.267 494.933C428.2 495.6 434.733 498 441.8 500.133C453.4 503.6 456.067 503.866 465.4 503.2C473.133 502.533 476.733 501.6 478.467 499.866C481.4 496.933 480.467 493.6 476.6 493.066C474.467 492.8 473.533 491.6 473.267 488.933C473 486.8 471.933 484.8 470.867 484.4C469.8 484 469 483.066 469 482.4C469 481.066 470.067 481.2 485.667 484C508.467 488.133 510.333 488.266 512.333 486.666C515.8 483.866 514.6 478.266 509.533 472.266C504.333 466 504.333 462.666 509.533 462.666C511.667 462.666 513.8 463.866 515.133 466.133C516.867 468.666 518.333 469.333 521.533 469.066C525.133 468.666 525.667 468.133 525.4 464.933C525.267 462.933 523.933 459.6 522.467 457.466C518.6 452 519 449.466 523 453.333C524.867 455.066 526.333 455.866 526.333 455.066C526.333 453.066 521.8 449.333 519.267 449.333C517.133 449.333 509 438.8 509 436.133C509 435.333 508.467 434.666 507.667 434.666C507 434.666 506.333 433.866 506.333 432.8C506.333 431.733 505.533 430.666 504.467 430.266C503.533 429.866 501.267 426.8 499.667 423.333C498.067 419.866 495.667 416.8 494.6 416.266C493.4 415.866 490.067 413.2 487.133 410.4C484.067 407.6 481 405.333 480.2 405.333C479.267 405.333 478.333 404.133 477.933 402.666C477.4 400.666 476.067 400 473.133 400C469.4 400 468.6 399.333 466.333 393.866C463.133 386.533 463.133 386.666 465.933 386.666C468.733 386.666 477 392.933 477 395.2C477 397.066 483 402.933 490.733 408.533C494.733 411.466 498.2 412.666 505.4 413.466C521 415.2 521.8 415.066 523.267 410.933C526.733 401.2 527.4 398.666 526.2 398.666C525.533 398.666 525.267 397.066 525.667 394.933C526.067 392.933 525.933 392.133 525.533 393.066C524.6 395.2 517 390.133 517 387.2C517 386.133 516.467 385.333 515.8 385.333C515.133 385.333 514.867 384.266 515.267 382.8C515.667 381.466 515.267 379.866 514.467 379.466C513.667 378.933 513 377.066 513 375.2C513 373.466 512.333 372 511.4 372C510.6 372 510.2 371.6 510.733 371.2C511.4 370.533 504.733 360.8 500.6 356.8C499.667 355.733 496.333 353.733 493.133 352.133C488.6 349.733 486.733 347.6 483.533 340.933C481.4 336.4 478.733 331.2 477.8 329.333C472.2 319.2 469 311.733 469.667 310.666C470.2 309.866 469.667 309.333 468.733 309.333C467.8 309.333 464.867 306.266 462.333 302.533C459.8 298.666 456.333 294.8 454.733 293.733C453.133 292.666 451.667 290.133 451.4 288.266C451.133 285.866 449.4 283.6 445.933 281.466C443 279.6 440.6 276.666 440.2 274.8C439.667 272.933 438.467 270 437.4 268.266C436.333 266.533 435.8 264.133 436.333 263.066C437 261.2 437.667 261.466 440.867 264.533C444.467 268 444.867 268 446.067 265.866C448.2 262.133 450.6 265.066 458.2 280.133C461.933 287.333 466.333 295.466 468.067 298.4C469.933 301.2 472.733 306.8 474.333 310.666C475.933 314.666 479.267 319.733 481.667 322C484.067 324.133 487.933 329.333 490.333 333.333C494.6 340.266 499.667 347.066 504.733 352.4C505.933 353.866 510.333 356.666 514.333 358.666C518.333 360.666 524.733 365.333 528.333 368.933C535 375.466 546.333 381.333 552.333 381.333C554.333 381.333 556.333 382.8 557.933 385.2C562.067 391.866 583.933 413.466 586.067 413.066C587.133 412.8 588.467 411.333 589.133 409.733C590.067 407.333 589.267 406 585.667 402.4C583.133 400 581 397.2 581 396.133C581 394.533 581.4 394.666 583.4 396.4C587.133 399.733 597.133 402.666 599.8 401.2C604.867 398.533 614.2 373.333 610.2 373.333C609.133 373.333 601 357.733 601 355.733C601 355.2 599.933 352.133 598.467 348.933C592.733 335.866 589.267 327.066 588.333 322.666C587.8 320.133 586.867 317.333 586.333 316.666C585.667 315.866 583.933 311.733 582.333 307.333C580.733 302.933 578.2 296.933 576.867 293.866C575.533 290.933 574.333 287.2 574.333 285.733C574.333 284.266 572.867 282 571 280.8C568.2 278.933 567.667 277.6 567.667 271.6C567.667 265.466 567.133 264 563.667 260.666C560.6 257.733 559.667 255.6 559.667 251.733C559.667 248.266 560.2 246.666 561.533 246.666C564.2 246.666 569 254.933 569 259.333C569 261.466 570.733 265.866 572.867 269.2C575 272.533 577.133 277.733 577.667 280.8C578.467 286.4 580.333 291.733 584.067 300.266C585.4 303.066 586.333 306.133 586.333 307.2C586.333 309.2 587.533 312.133 593.133 324.666C594.467 327.6 596.867 333.6 598.333 338C599.933 342.4 602.067 347.733 603.133 349.733C604.2 351.866 605 354.533 605 355.733C605 357.2 605.933 356.4 607.533 353.733C609.133 351.333 612.2 348.8 614.867 347.866C617.533 346.933 619.667 345.2 619.8 344C619.8 342.933 619.933 336.8 620.067 330.533C620.333 321.2 620.867 318.4 622.867 316.133C625.933 312.666 626.6 312.666 630.333 315.733C632.6 317.6 633.4 319.866 633.8 325.2C634.333 333.333 635.4 335.066 641.4 337.466C647 339.866 659.667 352.4 659.667 355.466C659.667 356.933 658.733 359.2 657.667 360.533C656.6 362 655.667 365.066 655.667 367.2C655.667 369.466 655.133 373.333 654.333 375.866C653.4 379.466 653.667 381.333 655.8 385.466C658.867 391.466 659.533 392 658.733 387.333C657.933 383.2 664.6 376 669.4 376C672.867 376 679 381.333 680.333 385.466C681.533 389.066 677 396.266 672.467 398.533C669.133 400.133 668.333 400 664.867 397.466C662.733 395.866 661 394.8 661 395.066C661 395.333 661.667 397.6 662.467 400.133C664.467 405.866 667.4 409.333 670.467 409.333C673.933 409.333 681 402.8 681.133 399.6C681.267 394.133 685.667 386.933 691.667 382C699.4 375.6 699.4 375.466 699.8 365.2C700.067 355.2 703.667 346.933 710.867 340.133C714.2 336.933 715.667 334.266 715.667 331.6C715.667 329.6 716.333 326.533 717.133 325.066C720.333 318.933 723.8 300.533 723.4 291.333C723.267 286.133 723.533 268.266 724.2 251.333L725.4 220.8L729.133 217.066C733.4 212.666 737 212.266 740.333 215.866C742.467 218.266 742.467 219.733 741.133 232.933C740.2 240.8 739 249.066 738.333 251.333C737.133 255.2 736.6 260 734.333 288.4C733.667 295.6 733.533 307.2 733.933 314.4C735.4 339.866 734.867 360.933 732.733 364.266C731.667 366 730.333 371.333 729.8 376.266C729.133 383.866 729.267 385.333 730.867 385.333C732.067 385.333 733.533 387.6 734.467 390.666C736.067 395.866 738.333 397.866 738.333 394C738.333 391.066 740.6 391.6 742.333 394.8C743.4 396.666 744.867 397.333 747.4 397.066C750.867 396.666 751 396.4 750.867 389.333C750.733 385.333 750.2 378.533 749.667 374.266C748.333 364.933 750.2 364.266 754.2 372.4C755.933 376.133 757 380.8 757 385.466C757 389.866 757.8 393.866 759 395.6C760.2 397.2 761 400.266 760.867 402.266C760.6 406.533 764.467 416.533 766.067 415.6C767.267 414.666 767.133 388.533 765.8 384.266C765.267 382.666 764.467 381.6 763.933 381.866C763.4 382.133 763 380.533 762.867 378.266C762.867 375.866 762.467 368.266 762.067 361.333C761.667 354.4 761.8 347.333 762.467 345.6C763.533 342.933 763.133 342 760.333 339.866C752.6 333.6 752.6 313.2 760.6 303.866C761.533 302.666 761.933 301.466 761.533 301.066C761.133 300.533 762.067 297.466 763.533 294C766.2 287.866 766.2 287.866 763.667 283.6C762.2 281.2 761 278.133 761 276.533C761 272.8 766.333 268 771.4 267.466C773.533 267.066 776.733 266.133 778.333 265.333C779.933 264.4 781.8 264.266 782.333 264.933C783.667 266.4 786.333 283.733 786.333 290.533C786.333 293.6 787 296 787.667 296C790.6 296 799.933 302.933 802.2 306.933C806.333 313.6 806.733 318.933 803.533 327.2C800.6 335.2 793.267 343.6 788.2 344.8C785 345.6 784.733 347.733 782.867 376.666L782.2 388.666L788.867 396.4C793.267 401.466 795.8 405.733 796.333 409.066C797.533 416.133 798.067 417.2 798.2 412.666C798.333 407.066 794.2 398.8 788.467 393.466C784.2 389.333 783.667 388.133 783.667 382.133C783.8 375.333 786.733 368.8 788.067 372.266C788.467 373.2 788.867 372.4 788.867 370.266C789 368.266 789.667 366.666 790.333 366.666C791.133 366.666 791.667 365.733 791.667 364.666C791.667 363.6 792.467 363.066 793.533 363.466C794.733 364 796.2 362.8 797.533 360.4C798.6 358.4 801.533 354.533 803.933 351.866C806.333 349.2 809.267 345.6 810.333 343.866C811.4 342.266 813.4 339.733 814.733 338.4C815.933 337.066 816.733 336 816.333 336C814.467 336 824.333 326.666 826.2 326.533C827.533 326.533 827.667 326.266 826.733 325.733C825 325.066 833.8 312 835.933 312C836.467 312 837 311.066 837 310C837 308.933 838.2 307.466 839.667 306.666C841.133 305.866 842.333 304.666 842.333 304C842.333 302.533 844.6 299.6 853.267 290.266C856.733 286.533 859.267 283.2 859 282.933C858.6 282.533 860.6 280 863.4 277.2C866.067 274.533 868.467 271.6 868.733 270.666C868.867 269.733 871.133 266.933 873.667 264.133C876.2 261.466 878.333 258.8 878.333 258.133C878.333 257.6 879.667 256 881.4 254.666C883.133 253.2 885.933 249.466 887.8 246.133C889.533 242.8 891.8 240 892.6 240C893.533 240 894.333 239.2 894.333 238.266C894.467 237.466 895.8 234.933 897.533 232.933C900.467 229.2 900.6 229.2 901.4 231.866C902.467 236.4 904.733 235.066 906.467 228.933C907.267 225.866 908.467 222.666 909.133 221.866C909.8 221.066 909.933 220.133 909.533 219.733C909.133 219.333 910.867 217.6 913.267 215.866C917.4 213.066 917.533 212.933 915.267 215.6C912.867 218.4 913.133 221.333 915.8 221.333C916.467 221.333 918.733 222.533 920.733 224C923.533 226.133 926.6 226.8 934.333 226.933C939.933 226.933 944.867 227.733 945.4 228.533C946.2 229.466 946.333 229.333 945.933 228C945.533 226.533 943 225.866 935.8 225.733C930.467 225.466 924.467 224.533 922.6 223.6C919.4 222.133 919 221.2 919.133 215.6C919.133 208.666 918.6 208.133 915 212C913.667 213.466 911.533 214.666 910.333 214.666C908.733 214.666 907.667 216.933 906.333 223.466C905.267 228.266 904.067 232.4 903.4 232.8C902.067 233.733 902.067 227.733 903.533 220C904.6 214.933 904.333 213.866 902.2 212.266C897.133 208.666 899.4 199.733 909.667 183.333C912.867 178.133 915.933 172.266 916.467 170.133C917.267 166.666 917.133 166.533 914.6 167.866C910.6 170 904.867 179.2 899.667 191.733C896.467 199.733 893.933 203.733 890.6 206.266C887 208.933 886.2 210.4 886.733 213.066C887.267 215.733 886.2 218 882.2 222.533C879.267 225.866 877.267 229.333 877.667 230.266C878.067 231.333 877.667 231.733 876.867 231.333C876.067 230.8 874.333 231.466 873 232.666C870.733 234.8 870.467 234.666 868.467 231.733C865.4 226.933 855.133 216 853.8 216C853.133 216 851.933 215.066 851.133 213.866C849.8 212.133 848.6 212 844.2 213.2C841.4 214 837.933 215.866 836.733 217.333C835.4 218.8 833.533 220 832.467 220C831.4 220 829.133 222 827.533 224.266C822.2 231.866 820.467 232.266 814.467 227.2C811.933 225.066 810.333 222.533 810.333 220.4C810.333 217.333 805.933 212.133 803.267 212C802.6 212 800.6 210.8 798.733 209.333C796.867 207.866 794.333 206.666 793 206.666C791.667 206.666 789.133 205.466 787.267 204C785.4 202.533 781.933 200.933 779.533 200.4C777 200 770.6 197.333 765 194.533C759.533 191.866 752.867 189.2 750.2 188.8C739.133 186.8 734.467 179.6 735.133 165.333C735.667 150.933 733.4 141.466 729.133 139.733C727.267 139.066 723.8 138.8 721.4 139.333C717.533 140 717 140.666 715.533 147.733C713.933 155.733 714.333 157.6 720.067 170.8C722.067 175.2 722.067 175.866 719.667 179.733C716.6 184.666 714.467 184.933 706.867 181.466C699 177.866 695.667 170.533 695.667 156.8C695.667 150.4 696.333 145.066 697.667 142.8C698.6 140.8 700.2 134 700.867 127.866C702.333 116.4 701.533 107.333 697.667 94.6664C695.533 87.7331 696.733 70.3998 699.4 67.7331C700.333 66.7998 701 64.6664 701 63.0664C701 61.3331 702.067 57.9998 703.267 55.5998C704.467 53.1998 705.533 50.9331 705.667 50.3998C705.667 49.9998 706.067 49.0664 706.733 48.5331C707.267 47.9998 707.667 44.9331 707.667 41.8664C707.667 38.7998 708.2 34.5331 709 32.6664C709.667 30.7998 710.733 24.2664 711.133 18.2664C711.933 7.86642 711.8 7.19975 708.6 3.59975C705.4 0.266419 702.2 -0.533581 696.867 0.933086ZM532.6 166.933C532.067 168.933 533.133 171.733 536.2 175.866C543.533 186.266 557.133 228 553.133 228C552.333 228 551.667 227.066 551.667 226C551.667 224.933 551.133 224 550.333 224C549.667 224 546.2 218.133 542.733 210.933C536.467 198 533.133 188.666 533 182.933C533 181.333 532.467 180 531.667 180C531 180 530.333 178.8 530.333 177.333C530.333 174.533 528.2 173.6 527.4 176.266C527 177.2 525.533 177.466 523.267 176.8C518.733 175.733 518.6 173.333 523 173.333C524.867 173.333 526.333 172.8 526.333 172.133C526.333 170.8 531.533 164 532.6 164C533 164 533 165.333 532.6 166.933ZM359 616C359 618.266 346.733 622.4 337.267 623.333C333.267 623.733 329.533 624.4 328.867 624.666C328.333 625.066 321.667 626 314.067 626.666C306.467 627.333 298.733 628.266 296.867 628.666C294.333 629.333 293.133 628.933 292.6 627.466C291.533 624.666 296.067 622.266 303.667 621.866C319.4 621.066 338.6 618.4 347 616.133C357.133 613.333 359 613.333 359 616ZM566.333 881.866C566.333 882.933 565.267 885.066 563.8 886.8C562.067 889.066 561.533 891.2 561.933 894.8C562.6 898.933 562.067 900.4 559.267 903.2C557.4 905.066 554.6 906.666 553.133 906.666C549.133 906.666 542.333 900.266 542.333 896.4C542.333 892 549.533 884.8 553.133 885.733C554.867 886.133 556.867 885.333 559 883.2C562.6 879.733 566.333 878.933 566.333 881.866Z" fill="#D61342"/>
<path d="M921.667 11.9998C918.867 14.9331 917.8 17.5998 917.267 22.5331C916.733 28.7998 917 29.5998 921 33.3331C927 38.9331 934.467 38.9331 939.8 33.1998C944.6 27.9998 945.933 21.5998 943.133 16.2665C938.467 7.06645 928.333 5.06645 921.667 11.9998Z" fill="#D61342"/>
<path d="M891 45.3327C889.533 45.9993 886.067 46.7993 883.267 47.3327C877.133 48.266 869 55.3327 864.067 63.7327C861 68.9327 860.6 70.7993 860.867 82.1327C861.133 96.1327 861.667 98.1327 867.533 107.066C872.2 113.866 876.733 117.466 885.267 121.333C890.2 123.466 892.333 123.599 900.6 122.666C917.533 120.533 923 116.399 930.6 100.666C934.2 93.1993 934.333 91.866 933.667 80.666C933 69.9993 932.467 67.9993 928.467 61.866C922.333 52.7993 908.2 43.9993 899.533 44.1327C896.333 44.1327 892.467 44.666 891 45.3327Z" fill="#D61342"/>
<path d="M195.667 299.067C195.667 300.8 197.667 305.6 200.2 309.733C202.733 313.867 205.533 319.6 206.333 322.267C207.267 325.067 208.867 328.8 210.067 330.667C213 335.2 218.333 350.4 218.333 354.133C218.333 355.867 219 357.6 219.8 358.133C221.8 359.333 233 383.2 233 386.133C233 387.2 234.6 390.8 236.467 394.133C238.333 397.333 239.667 400 239.267 400C239 400 236.2 399.067 233.133 398C225.133 395.2 226.467 397.733 234.733 400.933C253.8 408.267 258.733 409.333 249.267 404.267C243.667 401.333 241.4 399.067 238.867 394.133C237.133 390.667 235.8 387.467 235.933 386.933C236.067 386.4 234.6 382.933 232.733 379.067C230.867 375.333 229.533 371.867 229.933 371.467C230.333 371.067 229.667 369.867 228.467 368.667C227.267 367.467 226.2 365.467 226.2 364.267C225.8 359.333 225.533 358.667 223.267 356.933C221.8 356 220.6 353.467 220.6 351.2C220.467 349.067 219.533 346.533 218.733 345.6C217.8 344.667 217 342.667 217 341.333C217 340 216.467 338.4 215.667 338C215 337.6 214.333 335.733 214.333 333.867C214.333 332.133 213.8 330.667 213 330.667C212.333 330.667 211.667 329.467 211.667 328.133C211.667 326.667 210.867 324.667 209.933 323.733C208.867 322.8 207.267 319.6 206.333 316.667C205.4 313.733 203.667 310.667 202.467 309.733C200.867 308.533 200.867 308.133 202.067 308C203.133 308 203.533 307.067 203.267 305.6C202.867 304.4 202.2 301.733 201.8 299.6C200.733 294.933 195.667 294.4 195.667 299.067Z" fill="#D61342"/>
<path d="M377.533 378.267C377 381.733 377.133 390.533 377.667 397.867C378.2 405.333 378.467 411.867 378.467 412.667C378.333 413.333 378.2 420 377.933 427.333L377.667 440.667H381.4C383.4 440.533 385 441.067 385 441.733C385 442.267 385.667 442.4 386.333 442C388.333 440.8 387.933 438.667 385.8 438.667C384.867 438.667 383.667 437.467 383.267 436C382.467 433.067 384.333 432.267 385.4 434.933C385.667 435.867 386.467 434.267 387 431.467C387.933 427.067 387.533 426 385.4 424.133C382.067 421.467 380.067 408.8 382.467 405.867C383.667 404.4 383.667 404 382.467 404C381.4 404 381.133 402.933 381.667 401.2C382.333 399.2 382.2 398.667 381.133 399.2C380.333 399.733 379.667 399.467 379.667 398.8C379.667 398 380.333 397.333 381 397.333C381.8 397.333 382.333 396.133 382.333 394.8C382.333 393.333 383 391.733 383.667 391.333C384.467 390.8 384.6 389.733 384.067 388.933C383.533 388 383.267 384 383.533 380C383.8 373.333 383.533 372.533 381.133 372.4C379 372.267 378.333 373.2 377.533 378.267Z" fill="#D61342"/>
<path d="M418.467 416.666C417.667 420 416.333 422.666 415.667 422.666C413.933 422.666 413.933 419.733 415.667 415.466C417.8 409.6 415 411.6 411.267 418.533C408.867 422.666 407.267 428.4 406.6 434.8C405.933 440.266 405 445.6 404.467 446.8C403.8 448.533 404.6 449.333 407.8 450.533C413.133 452.4 413 452.4 413 450.133C413 449.066 414.867 444.8 417 440.666C419.267 436.533 421 431.6 421 429.866C421 426.4 422.333 425.866 424.733 428.266C425.533 429.066 429 429.866 432.2 429.866L438.2 430L435.267 426.933C433.8 425.333 430.2 423.6 427.533 423.2C423.667 422.533 422.333 421.6 421.667 419.066C421.267 417.2 421.267 414.666 421.667 413.2C422.2 411.866 421.933 410.666 421.267 410.666C420.6 410.666 419.267 413.333 418.467 416.666Z" fill="#D61342"/>
<path d="M1201.93 528.933C1201.4 529.733 1201.4 531.333 1201.8 532.4C1202.2 533.6 1201.53 534.667 1200.07 535.2C1198.33 535.733 1197.67 537.333 1197.53 540.667C1197.4 545.733 1193.93 550.667 1190.2 550.667C1185.27 550.667 1185.93 555.6 1191.67 562C1193 563.467 1195.27 566.8 1196.6 569.333C1198.07 572 1201.27 575.067 1204.07 576.4C1208.07 578.267 1208.87 579.2 1208.33 581.733C1207.8 583.733 1209.27 587.067 1213 592.533C1215.93 596.8 1218.33 600.8 1218.33 601.333C1218.33 603.2 1238.07 612 1242.2 612C1244.87 612 1247.67 613.2 1249.53 614.933C1251.4 616.933 1257 619.2 1264.47 621.067C1276.2 624.133 1292.47 630.933 1297.67 635.2C1299.13 636.4 1301.8 638.4 1303.67 639.867C1308.33 643.467 1306.07 644.933 1301.27 641.467C1296.47 638.133 1295.53 638 1296.47 640.667C1297 641.733 1296.87 642.667 1296.33 642.667C1294.6 642.667 1275.67 633.467 1275.67 632.533C1275.67 632.133 1277.93 632 1280.73 632.4L1285.67 633.2L1282.07 631.2C1279.13 629.733 1277.93 629.6 1275.8 630.933C1272.6 632.8 1262.33 630 1262.33 627.067C1262.33 624.933 1260.73 624.8 1258.6 626.933C1257.4 628.133 1257 628 1257 626.267C1257 623.333 1250.47 620.667 1248.47 622.667C1247.8 623.333 1244.47 624 1241.13 624C1237.67 624 1230.07 625.2 1223.93 626.667C1211.13 629.733 1205 630 1198.33 627.6C1194.47 626.267 1193.67 625.467 1194.33 623.333C1195.4 619.067 1197.27 616.8 1203.53 612.267L1209.4 608.133L1205.93 606.8C1203 605.6 1201.8 606.133 1197.27 610.4C1192.6 614.667 1192.07 615.867 1192.6 619.6C1193 622.4 1192.73 624 1191.8 624C1189.13 624 1190.33 626 1194.47 628.267C1196.73 629.6 1198.2 631.2 1197.8 631.867C1196.73 633.6 1201 636.933 1210.47 641.467C1222.2 647.067 1226.73 650.8 1231.53 658.667C1235.8 665.733 1235.4 666.933 1230.2 662.8C1228.47 661.467 1225.53 660 1223.67 659.467L1220.33 658.533L1223.8 661.6C1225.8 663.333 1229.4 666.4 1231.8 668.4L1236.33 672.133L1232.33 671.467C1222.33 670 1216.47 667.6 1208.87 661.733C1204.33 658.4 1199.67 653.867 1198.47 651.867C1197.13 649.733 1193.8 646.267 1190.87 644.133C1188.07 642 1183.53 638.267 1181 635.867C1178.47 633.467 1175.4 631.6 1174.47 631.867C1172.87 632.133 1172.73 631.867 1174.2 630.267C1175.53 628.533 1174.87 627.333 1170.6 623.067C1160.2 612.667 1151 609.2 1135.53 609.467C1127.53 609.6 1125.53 609.2 1124.07 607.2C1120.2 601.867 1122.73 596 1129.27 596C1131.27 596 1134.2 594.8 1135.67 593.333C1140.07 588.933 1139 584.933 1131.53 578.133C1124.2 571.467 1120.33 569.867 1114.87 571.2C1112.33 571.867 1111.67 572.667 1112.33 574.667C1114.47 581.333 1115.13 591.2 1113.93 597.467C1113 602.4 1113.13 606.133 1114.33 611.6C1115.67 617.2 1115.8 619.867 1114.6 622.933C1113.8 625.067 1113.4 627.6 1113.8 628.667C1114.2 629.6 1113.93 633.733 1113.13 637.867C1111.4 647.067 1112.07 648.8 1118.2 652C1120.87 653.333 1126.47 657.733 1130.87 661.867C1135.8 666.533 1139.8 669.333 1141.8 669.333C1145.13 669.333 1147.67 672.8 1147.67 677.2C1147.67 679.333 1147 679.733 1143 679.2C1140.07 678.8 1138.33 679.2 1138.33 680.133C1138.33 682.4 1149.67 693.333 1151.8 693.2C1152.87 693.2 1152.47 692.533 1150.87 691.867C1149.4 691.067 1147 688.533 1145.67 686.267L1143.27 682L1146.47 684.8C1150.2 688.133 1156.2 690 1155.27 687.6C1154.87 686.533 1156.87 686 1161.4 685.867C1166.87 685.733 1168.73 686.267 1170.6 688.533C1174.2 692.933 1173.4 689.6 1169.53 684.533C1167.53 682 1166.73 680 1167.53 680C1168.33 680 1169 680.533 1169 681.2C1169 681.867 1170.2 682.133 1171.67 681.733C1175.27 680.8 1181.4 686.267 1180.6 689.6C1180.2 690.933 1180.47 691.6 1181.27 691.2C1181.93 690.8 1182.33 689.333 1182.07 688.133C1181.8 686.933 1183 684.533 1184.73 682.667C1186.47 680.8 1187.67 680 1187.4 680.933C1187 682.667 1187.13 682.667 1194.33 682.667C1198.2 682.667 1199.67 682.133 1199.67 680.667C1199.67 679.6 1200.73 678.667 1202.07 678.667C1204.07 678.667 1204.07 678.933 1202.33 680C1200.87 681.067 1202.2 681.2 1207 680.667C1210.73 680.4 1218.33 679.733 1224.07 679.2C1231.53 678.667 1234.33 678 1234.33 676.533C1234.33 675.467 1233.4 675.067 1232.07 675.467C1230.07 676.133 1230.07 676 1231.53 674.933C1233.93 673.2 1239.53 676.667 1246.07 683.867L1250.6 688.667L1247.27 683.333C1245.53 680.4 1242.47 677.2 1240.6 676.267C1236.33 674.133 1235.8 671.467 1239.8 672.667C1241.8 673.333 1242.33 673.2 1241.8 672.133C1238.73 667.333 1256.73 675.733 1264.47 682.933L1270.87 688.667L1267 683.6C1265 680.8 1262.07 678 1260.73 677.2C1259.4 676.533 1258.6 675.333 1259 674.533C1259.53 673.867 1260.47 673.6 1261.13 674.133C1261.93 674.533 1267.4 674.267 1273.4 673.467C1284.87 672 1298.2 670.8 1303.4 670.667C1305.13 670.667 1306.2 670.267 1305.93 669.6C1305.53 669.067 1310.2 668.533 1316.2 668.4C1330.33 668 1333.53 667.2 1332.33 664.4C1331.67 662.533 1331.93 662.533 1334.33 664.667C1335.8 666 1337.4 666.667 1337.8 666.267C1338.33 665.733 1340.87 667.067 1343.53 669.2C1349.27 673.733 1354.33 676.4 1355.27 675.6C1355.53 675.2 1354.6 674.533 1353 674C1351.4 673.467 1348.2 671.467 1345.93 669.333C1343.53 667.333 1339.53 664.533 1337 663.067C1334.47 661.6 1332.33 659.6 1332.33 658.533C1332.33 655.867 1336.6 655.467 1340.33 657.867C1342.07 659.067 1345.67 660 1348.33 660C1354.33 660 1359 662.4 1364.87 668.533C1368.73 672.533 1369.13 673.6 1367.67 675.333C1366.73 676.4 1365.13 677.333 1364.2 677.333C1363.13 677.333 1362.33 678.267 1362.33 679.333C1362.33 681.2 1362.73 681.067 1365.67 679.2C1367.67 677.867 1370.6 677.333 1373 677.6C1377.53 678.267 1380.47 675.867 1379.13 672.667C1378.73 671.6 1377.13 670.667 1375.67 670.667C1374.2 670.667 1370.87 669.733 1368.33 668.8C1363.67 666.8 1363.67 666.8 1363.67 658.267C1363.67 647.067 1362.07 645.6 1352.87 647.867C1340.07 651.2 1329.53 646.533 1316.87 632C1312.87 627.333 1306.47 620 1302.6 615.6C1298.73 611.2 1292.87 603.467 1289.53 598.533C1283.93 590 1283.67 589.067 1284.47 582.8C1285.27 576.933 1285 575.867 1281.93 572.8C1277.4 568.267 1271.8 568.267 1266.6 572.667C1258.07 579.867 1255.4 576.4 1255.13 558.133C1255 545.333 1254.73 544.267 1251.93 542C1248.2 539.2 1247 540.133 1243 548.4C1239.27 556.133 1235.8 556.4 1229.4 549.467C1226.73 546.4 1223.53 544 1222.47 544C1220.07 544 1209.13 535.333 1205.13 530.533C1203.67 528.667 1202.47 528.133 1201.93 528.933Z" fill="#D61342"/>
<path d="M1014.33 714.266C1014.33 715.6 1015.13 717.6 1015.93 718.4C1017.27 719.733 1017.27 720.4 1015.67 721.333C1014.07 722.266 1014.47 723.066 1017.4 725.866C1019.4 727.733 1021 730.266 1021 731.733C1021 733.066 1021.67 734.8 1022.6 735.733C1024.87 738 1022.6 739.733 1016.47 740.266C1013.53 740.533 1011 741.466 1010.6 742.4C1009.93 744.4 1021.93 756.4 1023.53 755.466C1024.07 755.066 1024.33 756.533 1023.93 758.533C1023.13 763.866 1029.93 767.866 1038.07 766.933C1042.73 766.533 1044.47 766.933 1047.13 769.466C1048.87 771.066 1052.07 772.666 1054.33 772.933C1056.6 773.066 1060.6 774.266 1063.13 775.333C1069 777.733 1069.4 777.733 1068.2 775.733C1067.67 774.8 1067.8 774.666 1068.73 775.2C1070.6 776.4 1068.47 781.066 1065.67 782.133C1063.67 782.933 1064.6 784.266 1072.6 793.2C1075 795.866 1080.07 801.866 1083.8 806.666C1087.53 811.466 1091.13 815.466 1091.8 815.733C1092.47 816 1093 817.466 1093 819.066C1093 820.666 1093.53 822.666 1094.07 823.466C1095 824.933 1099.67 827.2 1101.27 826.933C1101.67 826.8 1102.87 827.733 1103.93 828.933C1105.27 830.666 1105.27 831.2 1103.93 831.6C1103 832 1104.33 833.6 1107 835.466C1112.2 838.933 1113.67 839.466 1112.33 837.333C1111.93 836.533 1112.2 836 1113 836C1113.8 836 1114.33 836.8 1114.07 837.733C1113.8 838.666 1117.13 843.333 1121.27 848C1125.4 852.8 1130.2 858.4 1132.07 860.533C1133.8 862.666 1136.07 864.133 1137 863.733C1138.2 863.333 1137.27 861.733 1133.93 858.666C1131.27 856.266 1129 853.466 1129 852.4C1129 851.466 1128.07 850.666 1127 850.666C1125.93 850.666 1125 850.133 1125 849.333C1125 848.666 1123.93 847.066 1122.47 845.733C1121.13 844.4 1119.53 841.066 1119.13 838.133C1118.33 834 1116.07 830.933 1107.67 822.666C1101.8 817.066 1095 810.933 1092.47 809.2C1089.67 807.333 1086.07 802.8 1083.53 797.866C1079.27 789.6 1079.13 785.333 1083 785.333C1084.07 785.333 1085 784.666 1085 784C1085 781.733 1092.73 786.4 1098.2 791.866C1103.67 797.333 1116.33 804 1121.13 804C1123.53 804 1123.8 803.733 1122.33 802C1121.4 800.8 1119.67 800 1118.47 800.133C1117.27 800.266 1115.93 800.133 1115.4 800C1113.67 799.466 1111.67 799.066 1110.2 798.8C1109.53 798.8 1109.27 798 1109.8 797.066C1110.33 796.133 1110.2 796 1109.13 796.533C1107 797.866 1101.4 793.066 1101.8 790.266C1102.07 788.266 1101.8 788.133 1100.2 789.466C1098.6 790.8 1098.07 790.666 1097.53 788.266C1097 786.8 1095.27 785.2 1093.27 784.666C1087.53 783.2 1085.93 781.333 1088.6 779.2C1090.73 777.6 1090.47 777.6 1087 778.933C1083.67 780.133 1082.2 779.866 1078.47 777.733C1075.93 776.4 1073.53 774.4 1073.27 773.466C1072.87 772.266 1073.27 772 1074.33 772.666C1075.4 773.333 1075.8 773.2 1075.27 772.4C1074.73 771.6 1072.87 771.333 1071 771.733C1069 772 1067.67 771.733 1067.67 770.8C1067.67 769.866 1067.13 769.6 1066.33 770C1065.67 770.4 1065 770.133 1065 769.466C1065 768.666 1065.93 768 1067 768C1068.07 768 1069 768.666 1069 769.333C1069 770.266 1069.8 770.266 1071.53 769.333C1073 768.666 1075 768.266 1075.93 768.666C1078.33 769.6 1083 766.133 1081.8 764.266C1080.47 762 1064.47 758 1051.53 756.666C1045.27 756 1043.8 755.333 1042.6 752.666C1041.67 750.666 1040.33 749.733 1039.27 750.133C1038.2 750.533 1035.53 749.2 1033.27 747.333C1030.87 745.333 1028.47 744.133 1027.67 744.666C1027 745.066 1026.33 744.533 1026.33 743.466C1026.33 742.266 1025.67 741.333 1024.73 741.333C1023.93 741.333 1023.67 740.933 1024.07 740.533C1024.6 740 1025.8 740.4 1027 741.333C1028.07 742.266 1029.93 742.666 1031 742.133C1032.07 741.733 1033 742 1033 742.666C1033 743.333 1033.8 743.6 1034.87 743.2C1035.93 742.8 1037.8 743.066 1039.13 743.733C1040.73 744.666 1042.07 744.266 1043.8 742.533C1046.87 739.466 1047.13 737.6 1044.33 740C1040.6 743.2 1023.53 739.333 1025.8 735.866C1026.6 734.533 1036.33 735.733 1039.93 737.466C1041.27 738.133 1042.47 738.133 1042.87 737.466C1043.8 736 1028.47 733.066 1025.67 734.133C1024.47 734.666 1023.13 733.333 1021.93 730.266C1020.87 727.733 1019.27 725.2 1018.47 724.666C1017.53 724.133 1017.27 722.666 1017.67 721.333C1018.07 720 1017.8 718.533 1017 718C1016.33 717.6 1015.67 716.266 1015.67 715.066C1015.67 712 1031.93 714 1039.67 718.133L1045.67 721.2L1039.93 721.333C1032.73 721.333 1031.13 724.266 1035.93 728.666C1038.2 730.8 1040.87 731.733 1045 731.733C1048.2 731.866 1053 732.666 1055.67 733.733C1067.8 738.666 1075.13 740.4 1083 740.133C1087.67 740 1093.8 740.8 1096.87 741.733C1099.8 742.8 1101.93 743.2 1101.53 742.533C1100.33 740.533 1090.73 738.666 1082.07 738.8C1075.8 738.8 1070.87 737.866 1062.73 734.8C1056.73 732.666 1049 730.4 1045.53 729.866C1039.67 729.066 1034.33 726 1034.33 723.733C1034.33 722.133 1043.53 722.533 1046.73 724.266C1048.33 725.066 1052.33 726.266 1055.67 726.8C1059 727.2 1062.87 728.133 1064.33 728.666C1065.8 729.2 1065.27 728.4 1063 726.8C1060.87 725.333 1058.07 724 1056.87 724C1055.8 724 1049.93 721.6 1044.07 718.8C1036.07 714.933 1030.73 713.2 1023.8 712.533C1015 711.733 1014.33 711.866 1014.33 714.266Z" fill="#D61342"/>
<path d="M619.667 959.867C614.6 961.333 608.333 970.667 604.2 983.333L600.467 994.8L603.267 1000.53C605.667 1005.47 607.133 1006.67 612.867 1008.53C621.133 1011.2 623.4 1011.2 629.8 1008.53C635.267 1006.27 639.533 1002.13 643.267 995.333C646.733 989.2 646.333 973.733 642.467 967.6C637.933 960.133 629.267 957.2 619.667 959.867Z" fill="#D61342"/>
</svg>
